<svg width="640" height="480" xmlns="http://www.w3.org/2000/svg" xmlns:svg="http://www.w3.org/2000/svg">
 <!-- Created with SVG-edit - http://svg-edit.googlecode.com/ -->
 <g>
  <title>Layer 2</title>
  <ellipse id="svg_4" cy="-26" cx="-209" stroke-linecap="null" stroke-linejoin="null" stroke-dasharray="null" stroke-width="5" stroke="#000000" fill="#ffff00"/>
  <g stroke="null" id="svg_32">
   <rect stroke="#000000" transform="matrix(0.8579805370645194,0.778492835877847,-0.7906214713354727,0.8448185707619651,178.29291229681647,-264.60781484205125) " id="svg_9" height="75.059339" width="77.580222" y="114.332639" x="282.385184" stroke-linecap="null" stroke-linejoin="null" stroke-dasharray="null" stroke-width="5" fill="#ffff00"/>
   <rect stroke="#000000" id="svg_22" transform="matrix(0.8205649224364495,0.8166656505826076,-0.8293890046203002,0.8079769354232261,369.2786371981651,-206.41250564425195) " height="75.059339" width="77.580222" y="321.444275" x="289.175675" stroke-linecap="null" stroke-linejoin="null" stroke-dasharray="null" stroke-width="5" fill="#ffff00"/>
   <rect stroke="#000000" id="svg_23" transform="matrix(0.8579805370645194,0.778492835877847,-0.7906214713354727,0.8448185707619651,232.4644993862554,-148.58124453142253) " height="75.059339" width="77.580222" y="224.28343" x="176.279853" stroke-linecap="null" stroke-linejoin="null" stroke-dasharray="null" stroke-width="5" fill="#ffff00"/>
   <rect stroke="#000000" id="svg_24" transform="matrix(0.8579805370645194,0.778492835877847,-0.7906214713354727,0.8448185707619651,294.4063983148137,-318.55965896653214) " height="75.059339" width="77.580222" y="218.28343" x="392.279853" stroke-linecap="null" stroke-linejoin="null" stroke-dasharray="null" stroke-width="5" fill="#ffff00"/>
   <rect stroke="#000000" id="svg_25" transform="matrix(1.1667102951967354,3.6220917546411305e-7,-3.6785226278123347e-7,1.1488122183443605,-26.872950686012643,-51.8098592437877) " height="75.059339" width="77.580222" y="144.509704" x="201.232262" stroke-linecap="null" stroke-linejoin="null" stroke-dasharray="null" stroke-width="5" fill="#ffff00"/>
   <rect stroke="#000000" id="svg_27" transform="matrix(1.1667102951967354,3.6220917546411305e-7,-3.6785226278123347e-7,1.1488122183443605,-26.872902652789463,-51.80986026027726) " height="75.059339" width="77.580222" y="276.50972" x="204.232278" stroke-linecap="null" stroke-linejoin="null" stroke-dasharray="null" stroke-width="5" fill="#ffff00"/>
   <rect stroke="#000000" id="svg_28" transform="matrix(1.1667102951967354,3.6220917546411305e-7,-3.6785226278123347e-7,1.1488122183443605,-26.87290406383991,-51.809909352874186) " height="75.059339" width="77.580222" y="274.509712" x="344.232278" stroke-linecap="null" stroke-linejoin="null" stroke-dasharray="null" stroke-width="5" fill="#ffff00"/>
   <rect stroke="#000000" id="svg_29" transform="matrix(1.1667102951967354,3.6220917546411305e-7,-3.6785226278123347e-7,1.1488122183443605,-26.87295078117259,-51.80991008835349) " height="75.059339" width="77.580222" y="144.509712" x="343.232278" stroke-linecap="null" stroke-linejoin="null" stroke-dasharray="null" stroke-width="5" fill="#ffff00"/>
   <ellipse stroke="#000000" ry="125.220532" rx="131.838263" id="svg_1" cy="230.26888" cx="337.166719" stroke-width="5" fill="#ffff00"/>
  </g>
 </g>
</svg>